<?xml version="1.0" encoding="UTF-8"?>
<svg id="Layer_2" data-name="Layer 2" xmlns="http://www.w3.org/2000/svg" xmlns:xlink="http://www.w3.org/1999/xlink" viewBox="0 0 134.62 92.45">
  <defs>
    <style>
      .cls-1 {
        fill: #004542;
      }

      .cls-1, .cls-2 {
        stroke-width: 0px;
      }

      .cls-2, .cls-3 {
        fill: none;
      }

      .cls-4 {
        clip-path: url(#clippath);
      }

      .cls-3 {
        stroke: #004542;
        stroke-miterlimit: 10;
        stroke-width: 2.69px;
      }
    </style>
    <clipPath id="clippath">
      <path class="cls-2" d="M127.79,46.07s-27.49,24.55-61.4,24.55S4.99,46.07,4.99,46.07c0,0,27.49-24.55,61.4-24.55s61.4,24.55,61.4,24.55Z"/>
    </clipPath>
  </defs>
  <g id="Layer_1-2" data-name="Layer 1">
    <g>
      <path class="cls-3" d="M127.79,46.07s-27.49,24.55-61.4,24.55S4.99,46.07,4.99,46.07c0,0,27.49-24.55,61.4-24.55s61.4,24.55,61.4,24.55Z"/>
      <g class="cls-4">
        <path class="cls-1" d="M66.39,68.53c12.4,0,22.46-10.05,22.46-22.46s-10.05-22.46-22.46-22.46-22.46,10.05-22.46,22.46,10.05,22.46,22.46,22.46Z"/>
      </g>
    </g>
    <g>
      <path class="cls-1" d="M14.12,28l-7.21-11.79,4.65-2.84c.89-.55,1.76-.84,2.6-.89.84-.04,1.61.13,2.3.53.7.4,1.29.99,1.77,1.77s.73,1.58.76,2.38-.17,1.57-.61,2.29c-.44.72-1.11,1.36-2.01,1.92l-2.96,1.81-1.22-2,2.56-1.57c.48-.29.83-.62,1.04-.98.21-.36.3-.73.28-1.13s-.16-.78-.39-1.17c-.24-.39-.53-.69-.86-.89s-.71-.28-1.12-.25c-.42.03-.86.19-1.35.49l-1.68,1.03,5.96,9.75-2.49,1.52Z"/>
      <path class="cls-1" d="M28.04,20.81c-.99.4-1.92.55-2.79.44s-1.65-.46-2.34-1.04c-.68-.58-1.23-1.38-1.65-2.39-.4-.99-.57-1.93-.49-2.83.08-.9.38-1.7.91-2.4s1.26-1.24,2.2-1.63c.63-.26,1.26-.4,1.89-.42.63-.02,1.23.09,1.81.32.58.24,1.1.61,1.58,1.13.48.52.88,1.18,1.22,2l.3.73-8.1,3.31-.67-1.65,5.6-2.29c-.16-.38-.38-.69-.67-.92-.29-.23-.61-.37-.98-.41-.36-.05-.74,0-1.12.16-.4.17-.72.4-.96.72s-.38.66-.42,1.04c-.05.38,0,.76.15,1.14l.64,1.57c.19.47.45.85.77,1.12s.68.44,1.08.49.82,0,1.27-.19c.3-.12.55-.27.76-.46.21-.18.37-.39.48-.63.11-.24.16-.5.15-.78l2.53-.84c.12.64.07,1.26-.13,1.86-.21.6-.56,1.14-1.07,1.63-.51.49-1.16.9-1.95,1.22Z"/>
      <path class="cls-1" d="M37.97,17.5c-1.03.28-1.97.31-2.82.09-.85-.22-1.58-.66-2.19-1.32-.61-.66-1.06-1.52-1.34-2.58-.28-1.03-.32-1.99-.14-2.87.19-.89.59-1.64,1.2-2.28s1.4-1.08,2.39-1.35c.66-.18,1.3-.24,1.93-.18s1.21.24,1.75.54,1.02.74,1.43,1.31c.41.57.73,1.28.96,2.13l.21.76-8.45,2.29-.47-1.72,5.83-1.58c-.11-.4-.29-.73-.55-.99-.26-.26-.56-.44-.92-.53s-.73-.08-1.14.02c-.42.11-.77.31-1.04.59-.27.28-.45.61-.55.98-.09.37-.09.76.01,1.15l.44,1.63c.13.5.34.9.62,1.21.28.31.62.52,1.01.62s.82.09,1.28-.03c.31-.08.58-.2.81-.36s.42-.35.55-.57c.13-.22.22-.47.24-.75l2.61-.53c.04.65-.08,1.26-.36,1.83s-.7,1.06-1.26,1.49-1.26.75-2.08.97Z"/>
      <path class="cls-1" d="M43.66,15.85l-2.21-13.64,2.84-.46,2.21,13.64-2.84.46ZM45.75,12.49l-.55-3.4.41-.07,2.65-4.41,3.26-.53-3.57,5.86-.67.11-1.53,2.45ZM50.05,14.81l-3.73-3.97,1.57-2.31,5.49,5.74-3.32.54Z"/>
      <path class="cls-1" d="M60.46,0l.77,13.8-2.92.16-.77-13.8,2.92-.16Z"/>
      <path class="cls-1" d="M66.05,7.69l-.07,5.99-2.88-.04.13-10.36,2.74.03-.02,1.83h.12c.24-.6.63-1.07,1.17-1.42.54-.35,1.2-.51,1.97-.51.72,0,1.34.17,1.88.5s.94.78,1.23,1.36c.29.59.43,1.28.42,2.09l-.08,6.6-2.87-.04.07-6.09c.01-.63-.14-1.13-.47-1.49-.32-.36-.77-.55-1.35-.55-.39,0-.73.07-1.02.24-.3.16-.53.4-.7.72-.17.32-.26.7-.27,1.14Z"/>
      <path class="cls-1" d="M80.81,4.11l-.19,2.15-6.22-.56.19-2.15,6.22.56ZM76.23,1.2l2.86.26-.86,9.62c-.02.26,0,.47.07.63.07.15.17.27.31.34.14.07.31.12.5.13.13.01.27.01.41,0,.14-.01.24-.02.31-.03l.26,2.17c-.15.03-.35.07-.62.1-.27.04-.58.05-.96.03-.69-.04-1.29-.18-1.79-.44-.5-.26-.87-.62-1.12-1.09s-.34-1.04-.27-1.72l.9-10Z"/>
      <path class="cls-1" d="M85.67,15.5c-1.03-.18-1.89-.55-2.56-1.12s-1.15-1.29-1.42-2.15-.32-1.81-.14-2.86c.18-1.06.54-1.94,1.09-2.67s1.23-1.24,2.06-1.55c.83-.31,1.76-.38,2.79-.2,1.03.18,1.89.55,2.56,1.12s1.15,1.29,1.42,2.15c.27.86.32,1.82.14,2.87-.18,1.05-.54,1.93-1.08,2.65-.54.72-1.23,1.24-2.06,1.55-.83.31-1.76.38-2.79.2ZM86.05,13.31c.47.08.89.01,1.25-.2s.66-.54.9-.98c.24-.44.41-.95.51-1.55s.11-1.14.03-1.63c-.08-.49-.26-.9-.53-1.23-.27-.32-.64-.53-1.11-.61-.47-.08-.9-.01-1.26.2-.37.22-.67.54-.91.98-.24.44-.41.95-.51,1.55-.1.59-.11,1.14-.03,1.63.08.49.26.9.54,1.22s.65.53,1.12.61Z"/>
      <path class="cls-1" d="M100.52,4.24l3.38,1.26.32,10.03.15.06,6.81-7.37,3.38,1.26-4.83,12.95-2.66-.99,3.14-8.43-.11-.04-6.47,7.12-1.81-.67-.22-9.65-.11-.04-3.15,8.46-2.66-.99,4.83-12.95Z"/>
      <path class="cls-1" d="M110.09,27.32c-.31-.19-.59-.39-.83-.6-.24-.21-.43-.41-.56-.59l1.67-1.5c.23.26.47.47.69.62.23.15.46.22.7.21.24-.01.5-.12.78-.33l.37-.29,2.37-11.04,2.58,1.57-2.13,7.62.09.06,5.81-5.37,2.6,1.58-9.42,7.71c-.46.38-.93.66-1.43.84-.5.18-1.02.24-1.57.17-.55-.07-1.13-.29-1.73-.66Z"/>
    </g>
    <g>
      <path class="cls-1" d="M12.76,69.36l-2.19-1.99c.22-.32.36-.65.44-.98.08-.33.09-.67.04-1-.05-.33-.16-.65-.34-.96-.18-.31-.41-.6-.7-.87-.53-.48-1.11-.77-1.74-.86-.63-.09-1.28,0-1.95.31-.67.3-1.32.81-1.97,1.52-.66.73-1.11,1.44-1.34,2.14-.23.69-.27,1.35-.1,1.96.16.61.5,1.15,1.02,1.62.29.26.59.47.91.62s.64.24.97.26c.33.03.65,0,.97-.1s.63-.26.93-.49l2.18,2c-.48.42-1.03.74-1.65.97-.62.23-1.27.34-1.96.34-.69,0-1.38-.14-2.08-.42-.7-.27-1.38-.71-2.04-1.31-.91-.83-1.54-1.77-1.88-2.84-.34-1.06-.37-2.18-.07-3.33s.95-2.29,1.96-3.41c1.01-1.12,2.08-1.88,3.21-2.28,1.13-.4,2.24-.48,3.33-.24s2.09.77,2.99,1.59c.59.54,1.07,1.12,1.42,1.75.36.63.59,1.28.69,1.95.1.67.07,1.35-.1,2.04-.17.68-.49,1.36-.96,2.01Z"/>
      <path class="cls-1" d="M9.77,77.72l5.26-8.93,2.4,1.41-.92,1.56.09.06c.49-.46,1.01-.72,1.56-.78.55-.06,1.08.06,1.58.35.12.07.25.16.39.26.13.1.25.2.34.29l-1.29,2.2c-.1-.1-.24-.23-.43-.38s-.37-.27-.54-.37c-.36-.21-.73-.33-1.11-.34-.38-.01-.73.08-1.06.26-.33.18-.6.46-.82.82l-2.98,5.05-2.48-1.46Z"/>
      <path class="cls-1" d="M21.1,83.84c-.98-.42-1.73-.98-2.27-1.69-.53-.7-.83-1.5-.89-2.4-.06-.9.12-1.85.55-2.85.42-.98.98-1.76,1.68-2.33.7-.58,1.48-.92,2.35-1.04.87-.12,1.77.03,2.71.43.63.27,1.17.62,1.63,1.06.46.43.8.94,1.04,1.52.23.58.33,1.22.3,1.92-.03.7-.22,1.46-.57,2.27l-.31.72-8.04-3.46.7-1.64,5.55,2.39c.16-.38.23-.75.19-1.12-.04-.36-.17-.69-.39-.99-.22-.29-.52-.52-.91-.69-.4-.17-.79-.23-1.18-.18-.39.05-.73.19-1.04.43-.31.23-.54.54-.71.91l-.67,1.56c-.2.47-.29.92-.26,1.33.03.42.16.79.4,1.12.24.32.58.58,1.03.77.29.13.58.2.86.22s.54-.01.79-.1c.24-.09.46-.24.66-.44l2.37,1.21c-.38.53-.85.94-1.42,1.21-.57.27-1.21.4-1.91.38-.71-.02-1.45-.2-2.24-.53Z"/>
      <path class="cls-1" d="M30.95,87.43c-.63-.18-1.17-.46-1.6-.83-.43-.37-.73-.81-.89-1.33-.16-.52-.15-1.11.04-1.77.16-.55.4-.99.71-1.3s.68-.54,1.09-.67c.42-.13.86-.19,1.35-.17.48.01.97.07,1.48.16.6.11,1.08.19,1.45.23.37.05.65.04.84-.02.19-.06.32-.2.38-.41v-.04c.13-.41.09-.77-.1-1.06-.19-.3-.52-.52-.99-.65-.5-.14-.92-.15-1.28-.02-.36.13-.63.35-.82.65l-2.49-.95c.3-.57.71-1.02,1.22-1.35.51-.33,1.1-.53,1.77-.6.67-.07,1.41.02,2.2.25.55.16,1.06.38,1.54.66.47.28.86.61,1.18.99s.53.83.63,1.32c.11.49.07,1.03-.1,1.63l-1.95,6.71-2.62-.76.4-1.38-.08-.02c-.25.26-.54.48-.88.63s-.71.25-1.12.27c-.41.02-.87-.04-1.36-.18ZM32.29,85.75c.41.12.79.14,1.15.07.36-.07.67-.22.92-.45.26-.22.44-.51.54-.86l.31-1.06c-.1.03-.24.05-.4.05s-.34,0-.54-.02c-.2-.02-.39-.04-.59-.06-.19-.03-.37-.05-.53-.07-.34-.05-.64-.05-.92-.02-.27.03-.5.12-.68.25-.18.14-.31.33-.39.59-.11.38-.05.7.16.98.22.28.54.48.96.6Z"/>
      <path class="cls-1" d="M46.79,80.33l-.42,2.12-6.12-1.2.42-2.12,6.12,1.2ZM42.53,76.97l2.82.55-1.86,9.48c-.05.26-.05.47,0,.63.05.16.14.28.28.37.13.09.29.15.48.18.13.03.27.04.4.04.14,0,.24,0,.32,0l.03,2.19c-.15.02-.36.03-.63.04-.27,0-.59-.02-.96-.07-.68-.11-1.26-.31-1.73-.62-.47-.31-.8-.71-1-1.2-.2-.49-.23-1.07-.09-1.74l1.94-9.85Z"/>
      <path class="cls-1" d="M47.03,90.83l1.43-10.26,2.85.4-1.43,10.26-2.85-.4ZM50.07,79.45c-.42-.06-.77-.25-1.03-.58-.26-.33-.36-.69-.31-1.08.05-.39.25-.71.59-.95.34-.24.72-.33,1.15-.27.42.06.77.25,1.03.58.26.33.36.68.31,1.08-.05.4-.25.72-.59.96-.34.24-.72.33-1.15.27Z"/>
      <path class="cls-1" d="M62.99,81.97l-4.35,10.08-3.23-.23-2.88-10.59,3.03.21,1.62,7.55h.11s2.66-7.24,2.66-7.24l3.04.21Z"/>
      <path class="cls-1" d="M68.7,92.45c-1.07.02-1.99-.19-2.76-.61s-1.37-1.03-1.8-1.82c-.43-.79-.65-1.73-.67-2.83-.02-1.07.18-2,.58-2.82.4-.81.97-1.45,1.72-1.91.75-.46,1.63-.7,2.64-.72.68-.01,1.32.09,1.92.3s1.12.53,1.57.96c.45.43.8.97,1.06,1.63.26.65.39,1.42.41,2.3v.79s-8.74.14-8.74.14l-.03-1.78,6.04-.09c0-.41-.1-.78-.29-1.1-.19-.32-.44-.56-.76-.74-.32-.18-.69-.26-1.11-.26-.44,0-.82.11-1.15.32-.33.21-.59.48-.77.82s-.28.71-.27,1.12l.03,1.69c0,.51.11.95.31,1.32s.47.65.83.85c.35.2.77.29,1.25.28.32,0,.61-.05.88-.15.26-.09.49-.23.67-.42.19-.18.33-.41.42-.67l2.66.13c-.12.64-.39,1.2-.8,1.68-.41.48-.94.86-1.59,1.13s-1.4.42-2.26.43Z"/>
      <path class="cls-1" d="M91.39,80.84l-2.92.46c-.11-.37-.28-.69-.49-.96-.21-.27-.46-.49-.75-.66s-.61-.28-.97-.34c-.35-.06-.73-.05-1.12,0-.71.11-1.29.38-1.76.82-.47.43-.79,1-.98,1.71-.18.71-.2,1.54-.05,2.48.15.97.43,1.77.83,2.38.4.62.88,1.05,1.46,1.3.58.25,1.21.33,1.9.22.39-.06.74-.17,1.05-.32.31-.15.58-.35.81-.59.23-.24.4-.51.53-.83s.19-.66.2-1.03l2.92-.45c.02.64-.07,1.27-.28,1.9-.21.63-.53,1.21-.96,1.74-.43.54-.97.99-1.63,1.37-.65.37-1.42.63-2.29.77-1.22.19-2.35.09-3.39-.31s-1.93-1.08-2.65-2.03-1.2-2.18-1.43-3.66c-.24-1.49-.16-2.8.24-3.93.39-1.13,1.03-2.05,1.9-2.75s1.91-1.15,3.11-1.34c.79-.13,1.54-.13,2.26-.02.71.12,1.36.34,1.96.68s1.1.79,1.53,1.35.75,1.23.97,2Z"/>
      <path class="cls-1" d="M96.73,82.46l1.66,5.76-2.76.79-3.82-13.28,2.68-.77,1.46,5.08.12-.03c.06-.65.29-1.22.69-1.7.41-.48.99-.83,1.74-1.04.69-.2,1.34-.22,1.94-.07.6.15,1.13.47,1.58.94.45.48.78,1.11,1,1.88l1.82,6.34-2.76.79-1.68-5.85c-.17-.62-.46-1.05-.88-1.3-.41-.25-.9-.3-1.46-.13-.38.11-.69.28-.93.53-.24.24-.4.54-.47.89-.08.35-.05.74.07,1.17Z"/>
      <path class="cls-1" d="M110.61,84.3c-.61.26-1.19.39-1.76.38-.57,0-1.08-.16-1.53-.46-.46-.3-.82-.76-1.09-1.39-.23-.53-.32-1.01-.28-1.46s.18-.85.42-1.21c.24-.36.55-.69.93-.99s.79-.57,1.25-.82c.53-.3.95-.54,1.27-.74.32-.2.53-.38.64-.55.11-.17.12-.35.03-.56l-.02-.04c-.17-.39-.42-.64-.76-.75-.34-.11-.73-.07-1.18.13-.47.21-.81.47-1,.8-.19.33-.26.67-.22,1.02l-2.53.86c-.13-.63-.1-1.24.08-1.82s.51-1.11.99-1.59c.48-.48,1.1-.88,1.86-1.21.53-.23,1.06-.38,1.6-.47.54-.08,1.05-.08,1.54.02.49.1.93.3,1.33.61s.71.75.96,1.32l2.77,6.42-2.5,1.08-.57-1.32-.07.03c-.02.36-.12.71-.28,1.05-.16.33-.39.64-.7.92s-.69.52-1.16.73ZM110.58,82.15c.39-.17.7-.39.93-.68s.37-.59.43-.93c.05-.34.01-.67-.13-1.01l-.44-1.01c-.06.09-.15.19-.28.29-.12.11-.27.21-.43.33-.16.11-.33.22-.49.32-.17.1-.32.2-.45.28-.29.18-.53.37-.72.57-.19.2-.31.41-.37.63s-.03.46.08.71c.16.36.4.58.75.65.34.08.72.02,1.12-.15Z"/>
      <path class="cls-1" d="M122.94,77.93c-.88.56-1.77.86-2.65.9-.88.03-1.72-.18-2.5-.63-.78-.45-1.46-1.13-2.03-2.02-.58-.9-.91-1.8-.99-2.7-.08-.9.07-1.74.47-2.53.4-.79,1.04-1.46,1.93-2.03.88-.56,1.77-.86,2.65-.9.88-.03,1.71.18,2.5.63.78.45,1.46,1.13,2.04,2.03.57.89.9,1.79.99,2.69.08.9-.07,1.74-.48,2.53-.4.79-1.04,1.46-1.92,2.03ZM121.75,76.05c.4-.26.66-.59.79-.99s.12-.85,0-1.33-.34-.98-.66-1.49c-.32-.51-.68-.92-1.08-1.23-.39-.31-.8-.49-1.21-.55s-.83.04-1.23.3c-.41.26-.67.59-.8,1-.13.41-.13.85-.02,1.34s.34.98.66,1.49.68.92,1.08,1.23c.39.31.8.49,1.22.54.42.05.83-.05,1.24-.31Z"/>
      <path class="cls-1" d="M130.57,61.46l-1.73,1.99c-.19-.12-.41-.2-.64-.22-.23-.02-.47.01-.72.11-.25.09-.49.26-.72.5-.31.32-.51.65-.59,1-.08.35-.01.63.21.85.18.17.4.25.66.23s.6-.17,1.01-.44l1.58-1.07c.85-.57,1.62-.88,2.29-.91.67-.03,1.28.21,1.81.74.48.48.77,1.04.86,1.68.09.64,0,1.31-.29,2-.28.69-.74,1.36-1.37,2-.96.98-1.93,1.56-2.91,1.74-.98.18-1.87-.03-2.67-.62l1.87-2.12c.36.23.73.31,1.12.23.39-.08.76-.31,1.12-.67.35-.36.57-.72.64-1.07.08-.36,0-.65-.21-.87-.19-.18-.42-.25-.69-.22s-.6.18-.98.44l-1.51,1.03c-.85.58-1.63.87-2.33.87s-1.33-.27-1.88-.81c-.48-.47-.76-1-.85-1.59-.09-.6,0-1.22.28-1.87.28-.65.72-1.3,1.34-1.93.92-.93,1.84-1.48,2.76-1.63.92-.15,1.77.06,2.54.64Z"/>
    </g>
  </g>
</svg>