<?xml version="1.0" encoding="UTF-8"?>
<svg id="Layer_2" data-name="Layer 2" xmlns="http://www.w3.org/2000/svg" viewBox="0 0 198.02 135.93">
  <defs>
    <style>
      .cls-1 {
        fill: none;
        stroke: #1c4afd;
        stroke-miterlimit: 10;
        stroke-width: 4px;
      }

      .cls-2 {
        fill: #1c4afd;
      }

      .cls-2, .cls-3, .cls-4, .cls-5, .cls-6 {
        stroke-width: 0px;
      }

      .cls-3 {
        fill: #fc06f8;
      }

      .cls-4 {
        fill: #ae00e9;
      }

      .cls-5 {
        fill: #00fec8;
      }

      .cls-6 {
        fill: #d6fff1;
      }
    </style>
  </defs>
  <g id="Layer_1-2" data-name="Layer 1">
    <path class="cls-5" d="M198.02,67.89s-44.32,41.2-99.01,41.2S0,67.89,0,67.89c0,0,44.33-41.2,99.01-41.2s99.01,41.2,99.01,41.2Z"/>
    <path class="cls-1" d="M190.19,67.89s-40.82,36.46-91.18,36.46S7.83,67.89,7.83,67.89c0,0,40.82-36.46,91.18-36.46s91.18,36.46,91.18,36.46Z"/>
    <path class="cls-3" d="M99.01,101.24c18.42,0,33.35-14.93,33.35-33.35s-14.93-33.35-33.35-33.35-33.35,14.93-33.35,33.35,14.93,33.35,33.35,33.35Z"/>
    <path class="cls-2" d="M106.74,69.75c-1.52-3.63-4.49-7.34-8.85-6.24-4.03.76-6.05,5.41-4.61,9.06,1.82,5.81,9.75,7.56,13.91,3.2,4.11-4.13,2.75-11.52-1.52-15.03-8.13-6.8-20.15-.66-19.52,9.94.2,5.6,3.72,11.01,8.84,13.33,6.72,3.31,15.68,1.39,19.91-4.93,6.24-8.72,1.98-21.63-7-26.69-11.22-6.47-25.89-.11-29.06,12.41-3.38,13.2,6.56,27.62,20,29.45,13.68,2.45,27.19-7.96,28.66-21.71,2.15-21.1-18.42-37.59-38.57-30.22-11.95,4.3-18.79,15.02-19.78,27.44.35-3.99.88-8.05,2.43-11.81,6.15-15.79,25.76-23.43,40.97-15.87,11.22,5.52,18.57,18.2,17.25,30.72-2.51,23.64-32.07,32.99-47.71,15.08-8.57-9.49-9.53-25.84.36-34.77,4.68-4.44,11.33-6.76,17.75-6.09,11.1.96,19.72,10.31,20.38,21.36.58,8.71-5.4,17.49-14.08,19.32-13.72,3.29-26.56-9.75-21.38-23.29,4.48-11.16,21.14-11.06,25.23.32,3.64,9.25-5.12,18.34-14.1,13.06-3.53-2.31-5.3-7.25-3.3-11.09,1.37-2.9,4.9-4.34,7.93-3.52,3.1.8,4.73,3.86,5.86,6.58h0Z"/>
    <path class="cls-2" d="M99.01,80.64c7.04,0,12.75-5.71,12.75-12.75s-5.71-12.75-12.75-12.75-12.75,5.71-12.75,12.75,5.71,12.75,12.75,12.75Z"/>
    <path class="cls-6" d="M94.4,65.65c1.95,0,3.54-1.58,3.54-3.54s-1.58-3.54-3.54-3.54-3.54,1.58-3.54,3.54,1.58,3.54,3.54,3.54Z"/>
    <path class="cls-4" d="M30.16,22.38c-1.05-1.54-3.25-2.05-5.06-1.18-3.31,1.58-3.2,4.99-1.8,7.92,1.33,2.79,3.92,5.01,7.23,3.43,2.25-1.08,2.79-3.21,2-5.57l3.56-1.71c1.63,4.38.04,8.4-4.09,10.37-5.16,2.47-10.08.07-12.39-4.76-2.38-4.97-1.16-10.31,4-12.78,3.66-1.75,7.81-1.08,10.11,2.57l-3.57,1.7h0Z"/>
    <path class="cls-4" d="M34.07,13.93l3.42-1.38,6.94,17.21-3.42,1.38-6.94-17.21Z"/>
    <path class="cls-4" d="M45.15,12.94l-3.47,1.26-1.04-2.86,3.47-1.26,1.04,2.86ZM42.39,16.15l3.47-1.26,4.59,12.63-3.47,1.26-4.59-12.63Z"/>
    <path class="cls-4" d="M58.91,15.71c-.66-1.4-1.76-1.89-3.28-1.44-2.27.67-2.33,3.19-1.77,5.08.56,1.87,1.93,3.85,4.15,3.19,1.67-.5,2.29-1.79,2.04-3.45l3.41-1.02c.54,3.55-1.22,6.11-4.63,7.13-3.89,1.16-7.32-.81-8.47-4.67-1.19-4.01.32-7.69,4.5-8.93,3.04-.9,6.33-.15,7.51,3.08l-3.46,1.03Z"/>
    <path class="cls-4" d="M62.81,4.46l3.62-.73,1.97,9.76,3.6-5.66,4.28-.87-3.99,5.85,7.22,7.21-4.38.89-4.81-5.15-1.13,1.63.92,4.54-3.62.73-3.68-18.19h0Z"/>
    <path class="cls-4" d="M86.26.53l4.08-.14.24,7.12,7.51-.25-.24-7.12,4.08-.14.62,18.55-4.08.14-.27-8-7.51.25.27,8-4.08.14-.62-18.55Z"/>
    <path class="cls-4" d="M108.17,13.21c-.11,2.37.91,3.5,2.98,3.69,1.48.13,2.75-.67,3.06-1.47l3.24.29c-1.32,3.09-3.64,4.21-6.67,3.94-4.22-.38-6.58-3.52-6.2-7.66.36-4.01,3.41-6.82,7.47-6.45,4.56.41,6.44,4.44,5.78,8.54l-9.66-.87h0ZM114.36,11.42c-.17-1.89-.88-2.95-2.67-3.11-2.38-.21-3.14,1.54-3.31,2.57l5.98.54Z"/>
    <path class="cls-4" d="M120.28,6.47l3.46.61-.43,2.46h.05c.98-1.53,2.9-2.38,4.72-2.06.28.05.53.15.77.27l-.59,3.38c-.32-.14-.85-.28-1.28-.36-2.69-.47-3.92,1.26-4.33,3.62l-1.05,5.97-3.64-.64,2.33-13.24h-.01Z"/>
    <path class="cls-4" d="M132.33,16.94c-.49,2.32.33,3.6,2.35,4.12,1.44.37,2.82-.21,3.25-.96l3.15.81c-1.8,2.84-4.28,3.57-7.22,2.81-4.1-1.06-5.92-4.53-4.88-8.56,1-3.9,4.46-6.18,8.42-5.16,4.43,1.14,5.64,5.43,4.33,9.36l-9.39-2.42h-.01ZM138.73,16.17c.14-1.9-.39-3.05-2.13-3.5-2.32-.6-3.35,1.02-3.68,2l5.82,1.5h0Z"/>
    <path class="cls-4" d="M157.86,15.19l-5.17-2.05,1.26-3.19,14.14,5.6-1.26,3.19-5.17-2.05-5.57,14.07-3.79-1.5,5.57-14.07h0Z"/>
    <path class="cls-4" d="M174.09,23.73c3.81,1.86,5.03,5.58,3.15,9.43-1.87,3.83-5.55,5.16-9.36,3.3-3.79-1.85-5.01-5.57-3.14-9.4,1.88-3.85,5.57-5.18,9.35-3.33ZM169.1,33.96c2.27,1.11,3.88-.48,4.82-2.42.95-1.94,1.21-4.21-1.05-5.31-2.24-1.09-3.87.51-4.81,2.45-.95,1.94-1.2,4.19,1.04,5.28Z"/>
    <path class="cls-4" d="M23.22,110.18c-1.06,2.23.27,3.93,2.24,4.86,1.29.61,3.44,1.17,4.26-.54.87-1.83-1.55-3.29-3.67-5.13-2.2-1.79-4.21-4.04-2.74-7.14,1.64-3.45,5.65-3.54,8.68-2.1,3.5,1.66,6,4.71,4.16,8.59l-3.57-1.69c.83-2.05-.32-3.26-2.11-4.11-1.17-.56-2.77-.71-3.44.7-.61,1.29.1,1.86,3.8,4.91,1.11.87,4.46,3.47,2.66,7.25-1.46,3.08-4.95,4.25-9.53,2.07-3.71-1.76-6.35-5.25-4.31-9.35l3.57,1.69h0Z"/>
    <path class="cls-4" d="M38.59,117.42c-.75,2.25-.07,3.62,1.87,4.36,1.38.53,2.83.11,3.34-.59l3.04,1.16c-2.11,2.62-4.65,3.07-7.49,1.98-3.96-1.51-5.37-5.17-3.89-9.06,1.44-3.77,5.13-5.64,8.95-4.18,4.28,1.63,4.99,6.03,3.25,9.79l-9.06-3.46h-.01ZM45.04,117.38c.35-1.87-.05-3.08-1.72-3.72-2.24-.85-3.44.63-3.89,1.58l5.61,2.14Z"/>
    <path class="cls-4" d="M52.92,122.51c-.56,2.3.22,3.61,2.22,4.19,1.42.41,2.83-.13,3.28-.86l3.12.91c-1.89,2.78-4.38,3.44-7.3,2.59-4.07-1.18-5.78-4.71-4.62-8.71,1.13-3.87,4.65-6.04,8.57-4.9,4.39,1.28,5.47,5.6,4.04,9.49l-9.31-2.71ZM59.34,121.94c.2-1.89-.3-3.07-2.02-3.57-2.3-.67-3.38.91-3.74,1.89l5.77,1.68h0Z"/>
    <path class="cls-4" d="M73.84,114.97l5.71.67,2.83,13.18h.05l5.56-12.19,5.71.67-2.16,18.43-3.79-.44,1.53-13.06h-.05l-6.05,12.53-3.12-.37-3-13.46h-.05l-1.51,12.93-3.79-.44,2.16-18.43-.03-.02Z"/>
    <path class="cls-4" d="M98.96,129.8c.15,2.36,1.29,3.38,3.37,3.34,1.48-.03,2.66-.97,2.88-1.8l3.25-.07c-.97,3.22-3.16,4.59-6.2,4.66-4.24.09-6.93-2.77-7.01-6.93-.08-4.03,2.63-7.16,6.71-7.24,4.58-.1,6.89,3.7,6.69,7.84l-9.7.21h.01ZM104.92,127.33c-.38-1.86-1.21-2.84-3-2.8-2.39.05-2.95,1.88-3.01,2.92l6.01-.13h0Z"/>
    <path class="cls-4" d="M116.52,116.19l5.63-1.15,6.82,11.63h.05l1.46-13.34,5.63-1.15,3.73,18.18-3.74.77-2.64-12.89h-.05l-1.82,13.81-3.08.63-7.07-11.85h-.05l2.62,12.77-3.74.77-3.73-18.18h-.02Z"/>
    <path class="cls-4" d="M145.79,113.88c4.02-1.33,7.5.48,8.84,4.56,1.34,4.05-.38,7.57-4.4,8.9-4,1.32-7.47-.49-8.81-4.54-1.34-4.07.37-7.6,4.37-8.92ZM149.36,124.69c2.39-.79,2.44-3.05,1.77-5.1-.68-2.05-2.07-3.86-4.46-3.07-2.37.78-2.41,3.07-1.73,5.12.68,2.05,2.06,3.84,4.43,3.06h0Z"/>
    <path class="cls-4" d="M154.47,111.2l3.25-1.32.94,2.31.05-.02c.01-1.83,1.18-3.57,2.89-4.27.26-.11.53-.16.79-.18l1.3,3.18c-.34.06-.87.21-1.28.38-2.53,1.03-2.65,3.16-1.74,5.37l2.29,5.61-3.42,1.39-5.07-12.45Z"/>
    <path class="cls-4" d="M169.64,113.02c1.12,2.09,2.58,2.54,4.45,1.64,1.34-.64,2.02-1.98,1.87-2.83l2.93-1.41c.45,3.33-.97,5.48-3.72,6.8-3.82,1.83-7.45.34-9.25-3.41-1.74-3.63-.56-7.6,3.12-9.37,4.12-1.98,7.81.52,9.33,4.37l-8.74,4.19v.02ZM174.04,108.31c-1.11-1.54-2.27-2.08-3.89-1.31-2.16,1.03-1.91,2.93-1.53,3.91l5.41-2.6h.01Z"/>
  </g>
</svg>